Coordinates
version=1
nRows=21
nColumns=12
inDegrees=yes

Units are S.I. units (second, meters, Newtons, ...)
Angles are in degrees

endheader
time	SC_y	SC_z	SC_x	AC_y	AC_z	AC_x	GH_y	GH_z	GH_yy	EL_x	PS_y
       0.0              -33.87         -3.546          52.31          47.93          3.588         -7.807         -23.86          41.11          136.1          110.6          158.0
   0.03868              -33.88         -3.544          52.32          47.93          3.589         -7.804         -23.85          41.11          136.1          110.6          158.0
   0.07736              -33.88         -3.541          52.32          47.93           3.59         -7.802         -23.85          41.11          136.0          110.6          158.0
     0.116              -33.88         -3.539          52.33          47.94          3.591         -7.799         -23.85          41.11          136.0          110.6          158.0
    0.1547              -33.88         -3.536          52.33          47.94          3.592         -7.796         -23.85          41.12          135.9          110.6          157.9
    0.1934              -33.89         -3.533          52.34          47.94          3.593         -7.792         -23.85          41.12          135.9          110.5          157.9
    0.2321              -33.89          -3.53          52.34          47.95          3.594         -7.789         -23.85          41.12          135.8          110.5          157.9
    0.2708              -33.89         -3.527          52.35          47.95          3.595         -7.785         -23.85          41.13          135.8          110.5          157.9
    0.3094               -33.9         -3.523          52.36          47.96          3.596         -7.781         -23.84          41.13          135.7          110.5          157.9
    0.3481               -33.9         -3.519          52.36          47.96          3.597         -7.777         -23.84          41.13          135.6          110.5          157.9
    0.3868              -33.91         -3.515          52.37          47.97          3.599         -7.773         -23.84          41.14          135.6          110.5          157.9
    0.4255              -33.91         -3.511          52.38          47.97            3.6         -7.768         -23.84          41.14          135.5          110.5          157.8
    0.4642              -33.91         -3.506          52.39          47.98          3.602         -7.762         -23.84          41.15          135.4          110.5          157.8
    0.5029              -33.92         -3.501           52.4          47.99          3.604         -7.757         -23.83          41.15          135.3          110.5          157.8
    0.5415              -33.92         -3.495          52.41          47.99          3.606         -7.751         -23.83          41.16          135.2          110.4          157.8
    0.5802              -33.93         -3.489          52.42           48.0          3.608         -7.744         -23.83          41.16          135.1          110.4          157.7
    0.6189              -33.94         -3.483          52.43          48.01           3.61         -7.737         -23.82          41.17          135.0          110.4          157.7
    0.6576              -33.94         -3.476          52.45          48.02          3.612         -7.729         -23.82          41.18          134.8          110.4          157.7
    0.6963              -33.95         -3.468          52.46          48.03          3.615          -7.72         -23.82          41.18          134.7          110.4          157.7
    0.7349              -33.96         -3.459          52.48          48.04          3.618         -7.711         -23.81          41.19          134.5          110.3          157.6
    0.7736              -33.97          -3.45           52.5          48.05          3.621           -7.7         -23.81           41.2          134.4          110.3          157.6
